<?xml version="1.0" encoding="UTF-8"?>
<svg version="1.1" xmlns="http://www.w3.org/2000/svg" width="243" height="140">
<path d="M0 0 C2.97 0 5.94 0 9 0 C10.50156874 3.00313748 10.09281204 5.79067522 10.0625 9.125 C10.05347656 10.40632813 10.04445313 11.68765625 10.03515625 13.0078125 C10.02355469 13.99523438 10.01195312 14.98265625 10 16 C10.60585937 15.95359375 11.21171875 15.9071875 11.8359375 15.859375 C18.59139284 15.56837077 24.15766638 16.44973382 30 20 C32.6322851 22.46747298 34.86891351 25.09268995 37 28 C37.20496094 27.36191406 37.40992188 26.72382812 37.62109375 26.06640625 C37.89050781 25.24011719 38.15992188 24.41382812 38.4375 23.5625 C38.70433594 22.73878906 38.97117188 21.91507813 39.24609375 21.06640625 C40 19 40 19 41 18 C45.53488372 17.76744186 45.53488372 17.76744186 48 19 C50.60931266 18.10636395 50.60931266 18.10636395 53 17 C53 14.36 53 11.72 53 9 C58.625 6.875 58.625 6.875 62 8 C63.4783226 10.95664519 63.06032783 13.74229737 63 17 C63.61488281 16.98839844 64.22976562 16.97679688 64.86328125 16.96484375 C65.67152344 16.95582031 66.47976562 16.94679688 67.3125 16.9375 C68.51326172 16.92009766 68.51326172 16.92009766 69.73828125 16.90234375 C72 17 72 17 75 18 C75.680625 17.855625 76.36125 17.71125 77.0625 17.5625 C84.17525114 16.20048382 90.45958295 16.42449481 97.0234375 19.6484375 C100.28535787 21.8789206 101.92404357 24.66588815 104 28 C104.66 28.33 105.32 28.66 106 29 C106.226875 28.46375 106.45375 27.9275 106.6875 27.375 C109.18994968 22.84675771 112.07650243 18.87268747 117 17 C124.08168771 16.38736133 132.02201343 16.5265606 139 18 C141.56136221 20.56136221 141.29666857 21.66561331 141.4140625 25.2265625 C141.45273438 26.2578125 141.49140625 27.2890625 141.53125 28.3515625 C141.57765625 29.97191406 141.57765625 29.97191406 141.625 31.625 C141.66367188 32.71296875 141.70234375 33.8009375 141.7421875 34.921875 C141.83666247 37.61441165 141.92222431 40.30693757 142 43 C142.77085937 42.66355469 143.54171875 42.32710937 144.3359375 41.98046875 C148.36536073 40.49749921 151.04402119 41.6813404 155 43 C154.26647481 39.7692802 154.26647481 39.7692802 151.25 38.1875 C147.43178269 35.61754604 145.46970804 33.89166115 143 30 C142.55849627 27.04308685 142.88570166 24.76869027 144 22 C146.45164356 19.12978315 148.23310983 17.32217767 152.03515625 16.62890625 C155.93175125 16.50508921 158.62869352 17.19394296 162 19 C164.16666667 19.16666667 164.16666667 19.16666667 166 18 C167.19595537 15.1628485 167.19595537 15.1628485 168 12 C168.63815344 10.65278717 169.29325371 9.31252882 170 8 C171.98 8 173.96 8 176 8 C176.15855469 8.61488281 176.31710938 9.22976562 176.48046875 9.86328125 C177.90135948 15.14129715 177.90135948 15.14129715 181.625 18.9375 C182.800625 19.4634375 182.800625 19.4634375 184 20 C184.33 20.66 184.66 21.32 185 22 C185.721875 21.54625 186.44375 21.0925 187.1875 20.625 C193.95889466 16.71263864 199.76171109 16.09144315 207.3125 17.9375 C209.55407994 18.58337897 211.7869351 19.2623117 214 20 C214.13277344 18.86820313 214.26554688 17.73640625 214.40234375 16.5703125 C214.5805342 15.08851821 214.75893029 13.60674864 214.9375 12.125 C215.06801758 11.00544922 215.06801758 11.00544922 215.20117188 9.86328125 C215.88671875 4.2265625 215.88671875 4.2265625 217 2 C219.21484375 1.62109375 219.21484375 1.62109375 221.9375 1.4375 C225.60675121 1.23198677 225.60675121 1.23198677 229 0 C230.80843663 -0.14716542 232.62331566 -0.2210887 234.4375 -0.25 C235.88962891 -0.28867187 235.88962891 -0.28867187 237.37109375 -0.328125 C240 0 240 0 241.8359375 1.16015625 C243.46944211 3.74197059 243.29431128 5.66118049 243.1875 8.6875 C243.14689453 10.17830078 243.14689453 10.17830078 243.10546875 11.69921875 C243.07066406 12.45847656 243.03585938 13.21773437 243 14 C242.43410156 14.13019531 241.86820313 14.26039062 241.28515625 14.39453125 C238.14467489 15.2266246 235.15339 16.41345779 232.12109375 17.57421875 C231.42113281 17.71472656 230.72117188 17.85523437 230 18 C229.01 17.34 228.02 16.68 227 16 C225.34382726 18.92382978 224.7232948 21.13567454 224.5859375 24.484375 C224.52792969 25.76441406 224.52792969 25.76441406 224.46875 27.0703125 C224.4378125 27.95460938 224.406875 28.83890625 224.375 29.75 C224.31699219 31.05324219 224.31699219 31.05324219 224.2578125 32.3828125 C224.08744569 36.43510883 223.99521447 40.46033164 224.0703125 44.515625 C224 48 224 48 222.5 50 C221.7575 50.495 221.7575 50.495 221 51 C220.236875 50.690625 219.47375 50.38125 218.6875 50.0625 C216.81210323 49.32106407 214.91315348 48.63771783 213 48 C212.195625 48.474375 211.39125 48.94875 210.5625 49.4375 C204.99814049 51.87800856 198.67265692 52.2375257 192.84375 50.2734375 C188.07046509 47.6983759 183.73315778 44.19947334 182 39 C181.9314505 37.10529184 181.91519628 35.2083166 181.9375 33.3125 C181.94652344 32.31863281 181.95554688 31.32476562 181.96484375 30.30078125 C181.98224609 29.16189453 181.98224609 29.16189453 182 28 C180.68 27.67 179.36 27.34 178 27 C178.02320313 28.15757813 178.04640625 29.31515625 178.0703125 30.5078125 C178.08908148 32.04686851 178.10728046 33.58593155 178.125 35.125 C178.14175781 35.88554688 178.15851563 36.64609375 178.17578125 37.4296875 C178.21546246 42.03270731 177.75907577 45.66464004 176 50 C174.02 50 172.04 50 170 50 C170 49.34 170 48.68 170 48 C169.34 48 168.68 48 168 48 C167.67 41.4 167.34 34.8 167 28 C164.36 28 161.72 28 159 28 C159.42152344 28.48210937 159.84304687 28.96421875 160.27734375 29.4609375 C160.82519531 30.09257813 161.37304688 30.72421875 161.9375 31.375 C162.48277344 32.00148437 163.02804688 32.62796875 163.58984375 33.2734375 C165.86220922 36.05566891 166.18042355 37.90649503 166.25 41.4375 C166.28867187 42.61119141 166.28867187 42.61119141 166.328125 43.80859375 C165.92211461 46.52016311 165.11082365 47.31338546 163 49 C158.35907892 51.67204547 153.2056814 51.3961846 148 51 C147.34 50.67 146.68 50.34 146 50 C143.12840501 49.87514804 140.6045027 49.84455645 137.8125 50.5625 C136 51 136 51 133 50 C131.66126543 50.3109319 130.32859196 50.64824399 129 51 C127.02412764 51.14132787 125.04319351 51.22002734 123.0625 51.25 C122.04285156 51.27578125 121.02320312 51.3015625 119.97265625 51.328125 C114.2502902 50.69648407 110.70147812 46.97580884 106.6484375 43.20703125 C104.93710206 41.70460835 104.93710206 41.70460835 102 42 C101.773125 42.5775 101.54625 43.155 101.3125 43.75 C98.82832706 48.00858218 95.87810879 49.70729707 91.25 51.25 C86.83685842 52.21011095 82.49473877 52.18728078 78 52 C77.93941406 53.05960938 77.87882812 54.11921875 77.81640625 55.2109375 C77.73199873 56.59897221 77.64735083 57.98699232 77.5625 59.375 C77.52318359 60.07367188 77.48386719 60.77234375 77.44335938 61.4921875 C77.11328125 66.7734375 77.11328125 66.7734375 76 69 C74.00045254 69.04254356 71.99958364 69.04080783 70 69 C67.90341542 66.90341542 68.76552642 62.34142265 68.71875 59.44140625 C68.70034058 58.58191879 68.68193115 57.72243134 68.66296387 56.8368988 C68.60402311 54.0788376 68.55129553 51.32071338 68.5 48.5625 C68.43247712 44.93866679 68.35877852 41.31503761 68.28125 37.69140625 C68.26767456 36.85178848 68.25409912 36.01217072 68.2401123 35.14710999 C68.25981331 30.93892773 68.25981331 30.93892773 67 27 C66.01 27 65.02 27 64 27 C63.07504146 29.77487561 62.90161307 31.28072415 62.97265625 34.125 C62.98490234 34.91390625 62.99714844 35.7028125 63.00976562 36.515625 C63.04492373 38.17196248 63.08398688 39.82822167 63.12695312 41.484375 C63.13791016 42.27328125 63.14886719 43.0621875 63.16015625 43.875 C63.17699463 44.59429687 63.19383301 45.31359375 63.21118164 46.0546875 C63 48 63 48 61 51 C58 51.375 58 51.375 55 51 C52.83073341 47.74610012 52.75919951 46.86604043 52.8046875 43.11328125 C52.81113281 42.17548828 52.81757812 41.23769531 52.82421875 40.27148438 C52.84097656 39.29501953 52.85773437 38.31855469 52.875 37.3125 C52.88402344 36.32443359 52.89304688 35.33636719 52.90234375 34.31835938 C52.9259157 31.87866235 52.95881978 29.43945303 53 27 C51.35 27 49.7 27 48 27 C48.01571045 27.98395752 48.01571045 27.98395752 48.03173828 28.98779297 C48.07322503 31.95015658 48.09930262 34.91245916 48.125 37.875 C48.14175781 38.90753906 48.15851562 39.94007812 48.17578125 41.00390625 C48.18544922 42.48310547 48.18544922 42.48310547 48.1953125 43.9921875 C48.21102295 45.35899658 48.21102295 45.35899658 48.22705078 46.75341797 C48 49 48 49 46 51 C43.21487441 51.35706738 41.63896699 51.41076449 39.25 49.875 C37.56014759 47.34022139 37.33269391 44.99424517 37 42 C36.2575 42.763125 35.515 43.52625 34.75 44.3125 C29.27895207 49.65920593 25.89413286 51.14141455 18.1875 51.125 C16.98480469 51.12757812 15.78210938 51.13015625 14.54296875 51.1328125 C11 51 11 51 7.86328125 50.4296875 C4.63276034 49.77924154 4.63276034 49.77924154 0 51 C0 34.17 0 17.34 0 0 Z M236 5 C236.33 5.99 236.66 6.98 237 8 C237.66 7.67 238.32 7.34 239 7 C238.67 6.34 238.34 5.68 238 5 C237.34 5 236.68 5 236 5 Z M241 6 C241 8.31 241 10.62 241 13 C241.33 13 241.66 13 242 13 C242 10.69 242 8.38 242 6 C241.67 6 241.34 6 241 6 Z M233 7 C234 9 234 9 234 9 Z M236 9 C237 11 237 11 237 11 Z M233 11 C233 12.32 233 13.64 233 15 C234.32 14.34 235.64 13.68 237 13 C236.01 13 235.02 13 234 13 C233.67 12.34 233.34 11.68 233 11 Z M237 11 C238 13 238 13 238 13 Z M11.33203125 29.25390625 C9.77617876 31.05466746 9.77617876 31.05466746 9.25 34 C10.27552025 38.102081 11.92300124 40.12367508 15 43 C17.89072953 44.32908167 17.89072953 44.32908167 21 44 C25.2420814 41.75278859 25.2420814 41.75278859 28 38 C28.55439448 32.45961702 28.55439448 32.45961702 26.4375 27.5625 C20.3918648 23.68709282 16.25407691 24.44296771 11.33203125 29.25390625 Z M79 29 C77.44975536 32.10048928 77.71007985 34.57894218 78 38 C79.84188681 41.13802937 81.0292219 42.62662381 84.4375 43.9375 C87.58449549 44.01425599 89.25300936 43.54958447 92 42 C94.72656315 39.34712774 95.87169313 37.76984123 96.5 34 C95.88466097 30.30796584 94.58383614 28.65983132 92 26 C86.7018158 23.3509079 82.9915062 25.12253683 79 29 Z M115 28 C113.78413491 32.38218043 113.47312041 35.79570379 115.3125 40 C117.82889214 42.98239068 118.80575753 42.98089418 122.8125 43.375 C126.24119313 43.31879192 127.00329345 42.99773575 130 40.9375 C132.54356454 37.20163958 132.77894903 35.44000949 132 31 C130.17331062 27.42462844 130.17331062 27.42462844 127 25 C122.52665674 23.91931113 117.89448722 24.17927687 115 28 Z M154 26 C154 26.66 154 27.32 154 28 C154.99 27.67 155.98 27.34 157 27 C156.01 26.67 155.02 26.34 154 26 Z M197 27 C195.29467677 28.94009522 195.29467677 28.94009522 194 31 C196.46800047 29.84826645 198.04783565 28.95216435 200 27 C199.01 27 198.02 27 197 27 Z M208.875 33 C208.15054688 33.37125 207.42609375 33.7425 206.6796875 34.125 C206.12539062 34.41375 205.57109375 34.7025 205 35 C205 35.66 205 36.32 205 37 C204.01 37 203.02 37 202 37 C201.67 37.99 201.34 38.98 201 40 C200.01 40.495 200.01 40.495 199 41 C199 41.66 199 42.32 199 43 C203.05537663 42.38932377 203.05537663 42.38932377 207 41.3125 C209.98673942 40.84582197 212.23076255 41.93006735 215 43 C215 39.04 215 35.08 215 31 C212.47524538 31 211.11097066 31.84595063 208.875 33 Z " fill="#0C9190" transform="translate(0,44)"/>
<path d="M0 0 C1.45212891 -0.03867187 1.45212891 -0.03867187 2.93359375 -0.078125 C5.5625 0.25 5.5625 0.25 7.3984375 1.41015625 C9.03194211 3.99197059 8.85681128 5.91118049 8.75 8.9375 C8.70939453 10.42830078 8.70939453 10.42830078 8.66796875 11.94921875 C8.63316406 12.70847656 8.59835938 13.46773437 8.5625 14.25 C7.99660156 14.38019531 7.43070312 14.51039062 6.84765625 14.64453125 C3.70717489 15.4766246 0.71589 16.66345779 -2.31640625 17.82421875 C-3.01636719 17.96472656 -3.71632812 18.10523437 -4.4375 18.25 C-5.4275 17.59 -6.4175 16.93 -7.4375 16.25 C-9.09367274 19.17382978 -9.7142052 21.38567454 -9.8515625 24.734375 C-9.89023438 25.58773437 -9.92890625 26.44109375 -9.96875 27.3203125 C-10.01515625 28.64675781 -10.01515625 28.64675781 -10.0625 30 C-10.10117188 30.86882812 -10.13984375 31.73765625 -10.1796875 32.6328125 C-10.35005431 36.68510883 -10.44228553 40.71033164 -10.3671875 44.765625 C-10.4375 48.25 -10.4375 48.25 -11.9375 50.25 C-12.4325 50.58 -12.9275 50.91 -13.4375 51.25 C-14.200625 50.940625 -14.96375 50.63125 -15.75 50.3125 C-17.62539677 49.57106407 -19.52434652 48.88771783 -21.4375 48.25 C-22.241875 48.724375 -23.04625 49.19875 -23.875 49.6875 C-29.43935951 52.12800856 -35.76484308 52.4875257 -41.59375 50.5234375 C-46.36703491 47.9483759 -50.70434222 44.44947334 -52.4375 39.25 C-52.5060495 37.35529184 -52.52230372 35.4583166 -52.5 33.5625 C-52.49097656 32.56863281 -52.48195312 31.57476562 -52.47265625 30.55078125 C-52.46105469 29.79152344 -52.44945312 29.03226563 -52.4375 28.25 C-53.7575 27.92 -55.0775 27.59 -56.4375 27.25 C-56.42589844 28.41917969 -56.41429687 29.58835937 -56.40234375 30.79296875 C-56.39296087 32.34114423 -56.3838612 33.88932145 -56.375 35.4375 C-56.36662109 36.20642578 -56.35824219 36.97535156 -56.34960938 37.76757812 C-56.33258066 41.73526789 -56.45145885 45.37571234 -57.4375 49.25 C-57.7675 49.25 -58.0975 49.25 -58.4375 49.25 C-58.4375 41.33 -58.4375 33.41 -58.4375 25.25 C-56.4575 25.25 -54.4775 25.25 -52.4375 25.25 C-52.4375 23.27 -52.4375 21.29 -52.4375 19.25 C-51.4475 20.24 -50.4575 21.23 -49.4375 22.25 C-48.715625 21.79625 -47.99375 21.3425 -47.25 20.875 C-40.47860534 16.96263864 -34.67578891 16.34144315 -27.125 18.1875 C-24.88342006 18.83337897 -22.6505649 19.5123117 -20.4375 20.25 C-20.30472656 19.11820313 -20.17195313 17.98640625 -20.03515625 16.8203125 C-19.8569658 15.33851821 -19.67856971 13.85674864 -19.5 12.375 C-19.41298828 11.62863281 -19.32597656 10.88226563 -19.23632812 10.11328125 C-18.55078125 4.4765625 -18.55078125 4.4765625 -17.4375 2.25 C-15.22265625 1.87109375 -15.22265625 1.87109375 -12.5 1.6875 C-8.09236561 1.37674592 -4.4421823 0.07079175 0 0 Z M1.5625 5.25 C1.8925 6.24 2.2225 7.23 2.5625 8.25 C3.2225 7.92 3.8825 7.59 4.5625 7.25 C4.2325 6.59 3.9025 5.93 3.5625 5.25 C2.9025 5.25 2.2425 5.25 1.5625 5.25 Z M6.5625 6.25 C6.5625 8.56 6.5625 10.87 6.5625 13.25 C6.8925 13.25 7.2225 13.25 7.5625 13.25 C7.5625 10.94 7.5625 8.63 7.5625 6.25 C7.2325 6.25 6.9025 6.25 6.5625 6.25 Z M-1.4375 7.25 C-0.4375 9.25 -0.4375 9.25 -0.4375 9.25 Z M1.5625 9.25 C2.5625 11.25 2.5625 11.25 2.5625 11.25 Z M-1.4375 11.25 C-1.4375 12.57 -1.4375 13.89 -1.4375 15.25 C-0.1175 14.59 1.2025 13.93 2.5625 13.25 C1.5725 13.25 0.5825 13.25 -0.4375 13.25 C-0.7675 12.59 -1.0975 11.93 -1.4375 11.25 Z M2.5625 11.25 C3.5625 13.25 3.5625 13.25 3.5625 13.25 Z M-37.4375 27.25 C-39.14282323 29.19009522 -39.14282323 29.19009522 -40.4375 31.25 C-37.96949953 30.09826645 -36.38966435 29.20216435 -34.4375 27.25 C-35.4275 27.25 -36.4175 27.25 -37.4375 27.25 Z M-25.5625 33.25 C-26.28695312 33.62125 -27.01140625 33.9925 -27.7578125 34.375 C-28.31210938 34.66375 -28.86640625 34.9525 -29.4375 35.25 C-29.4375 35.91 -29.4375 36.57 -29.4375 37.25 C-30.4275 37.25 -31.4175 37.25 -32.4375 37.25 C-32.7675 38.24 -33.0975 39.23 -33.4375 40.25 C-34.4275 40.745 -34.4275 40.745 -35.4375 41.25 C-35.4375 41.91 -35.4375 42.57 -35.4375 43.25 C-31.38212337 42.63932377 -31.38212337 42.63932377 -27.4375 41.5625 C-24.45076058 41.09582197 -22.20673745 42.18006735 -19.4375 43.25 C-19.4375 39.29 -19.4375 35.33 -19.4375 31.25 C-21.96225462 31.25 -23.32652934 32.09595063 -25.5625 33.25 Z " fill="#10908F" transform="translate(234.4375,43.75)"/>
<path d="M0 0 C1.98 0.99 1.98 0.99 4 2 C5.88899397 1.64819977 5.88899397 1.64819977 8 1 C10.33117514 0.88179183 12.6658625 0.82486302 15 0.8125 C16.216875 0.79832031 17.43375 0.78414062 18.6875 0.76953125 C21.7719563 0.98413375 23.42673876 1.37241226 26 3 C25.67 3.99 25.34 4.98 25 6 C24.34773438 5.96519531 23.69546875 5.93039063 23.0234375 5.89453125 C17.56321413 5.72540929 13.68514009 5.83753044 9 9 C6.31009671 13.03485494 6.22006118 16.26228652 7 21 C8.75 24.25 8.75 24.25 12 26 C16.70922135 26.96954557 20.10419665 26.42347067 24.4375 24.375 C27.32450149 21.69924252 28.13682957 19.79794988 29 16 C31.56687367 19.8503105 30.83288724 21.58569763 30 26 C28.68 26.33 27.36 26.66 26 27 C25.67 28.65 25.34 30.3 25 32 C19.16200408 33.69832609 14.06892629 34.25287193 8 34 C7.93941406 35.05960938 7.87882812 36.11921875 7.81640625 37.2109375 C7.73199873 38.59897221 7.64735083 39.98699232 7.5625 41.375 C7.52318359 42.07367188 7.48386719 42.77234375 7.44335938 43.4921875 C7.11328125 48.7734375 7.11328125 48.7734375 6 51 C4.02 51 2.04 51 0 51 C0 34.17 0 17.34 0 0 Z " fill="#049898" transform="translate(70,62)"/>
<path d="M0 0 C1.45212891 -0.03867187 1.45212891 -0.03867187 2.93359375 -0.078125 C5.5625 0.25 5.5625 0.25 7.3984375 1.41015625 C9.03194211 3.99197059 8.85681128 5.91118049 8.75 8.9375 C8.72292969 9.93136719 8.69585937 10.92523438 8.66796875 11.94921875 C8.63316406 12.70847656 8.59835938 13.46773437 8.5625 14.25 C7.99660156 14.38019531 7.43070313 14.51039062 6.84765625 14.64453125 C3.70717489 15.4766246 0.71589 16.66345779 -2.31640625 17.82421875 C-3.01636719 17.96472656 -3.71632812 18.10523437 -4.4375 18.25 C-5.4275 17.59 -6.4175 16.93 -7.4375 16.25 C-9.09367274 19.17382978 -9.7142052 21.38567454 -9.8515625 24.734375 C-9.89023438 25.58773437 -9.92890625 26.44109375 -9.96875 27.3203125 C-9.9996875 28.20460938 -10.030625 29.08890625 -10.0625 30 C-10.10117188 30.86882812 -10.13984375 31.73765625 -10.1796875 32.6328125 C-10.34993825 36.6823482 -10.44509908 40.70896934 -10.3828125 44.76171875 C-10.4375 48.25 -10.4375 48.25 -11.6875 50.3125 C-13.4375 51.25 -13.4375 51.25 -17.4375 50.25 C-17.4375 34.41 -17.4375 18.57 -17.4375 2.25 C-14.1375 1.92 -10.8375 1.59 -7.4375 1.25 C-4.85741408 -0.04004296 -2.88008426 0.04589776 0 0 Z M1.5625 5.25 C1.8925 6.24 2.2225 7.23 2.5625 8.25 C3.2225 7.92 3.8825 7.59 4.5625 7.25 C4.2325 6.59 3.9025 5.93 3.5625 5.25 C2.9025 5.25 2.2425 5.25 1.5625 5.25 Z M6.5625 6.25 C6.5625 8.56 6.5625 10.87 6.5625 13.25 C6.8925 13.25 7.2225 13.25 7.5625 13.25 C7.5625 10.94 7.5625 8.63 7.5625 6.25 C7.2325 6.25 6.9025 6.25 6.5625 6.25 Z M-1.4375 7.25 C-0.4375 9.25 -0.4375 9.25 -0.4375 9.25 Z M1.5625 9.25 C2.5625 11.25 2.5625 11.25 2.5625 11.25 Z M-1.4375 11.25 C-1.4375 12.57 -1.4375 13.89 -1.4375 15.25 C-0.1175 14.59 1.2025 13.93 2.5625 13.25 C1.5725 13.25 0.5825 13.25 -0.4375 13.25 C-0.7675 12.59 -1.0975 11.93 -1.4375 11.25 Z M2.5625 11.25 C3.5625 13.25 3.5625 13.25 3.5625 13.25 Z " fill="#118C8B" transform="translate(234.4375,43.75)"/>
<path d="M0 0 C2.875 0.75 2.875 0.75 6 2 C7.1953125 4.078125 7.1953125 4.078125 8 6 C5.44454737 7.96766709 2.87947753 9.92239917 0.3125 11.875 C-0.7693457 12.70837891 -0.7693457 12.70837891 -1.87304688 13.55859375 C-5.45091251 16.27058323 -8.65523806 18.64601107 -13 20 C-12.009245 21.66641006 -12.009245 21.66641006 -10 23 C-5.42590939 23.36302306 -1.93606919 23.62404613 2 21 C3.32 21.99 4.64 22.98 6 24 C5.8125 25.875 5.8125 25.875 5 28 C-0.89910532 30.99704099 -7.83403026 31.03778606 -14.1953125 29.453125 C-18.08373345 27.66882794 -19.78458999 25.03888054 -21.5 21.3125 C-23.64933444 15.0582135 -23.22018233 10.08256589 -20.8125 4 C-18.39805352 1.33578319 -16.51044258 1.23402951 -13 1 C-13 1.66 -13 2.32 -13 3 C-13.66 3 -14.32 3 -15 3 C-15.66 6.96 -16.32 10.92 -17 15 C-14.6446344 13.6970318 -12.31804825 12.36726984 -10 11 C-9.19691406 10.52949219 -8.39382812 10.05898437 -7.56640625 9.57421875 C-6.76074219 9.07535156 -5.95507812 8.57648438 -5.125 8.0625 C-4.36445313 7.59972656 -3.60390625 7.13695313 -2.8203125 6.66015625 C-0.52325465 4.56520005 -0.31842116 3.03527271 0 0 Z " fill="#0A9594" transform="translate(207,65)"/>
<path d="M0 0 C1.98 0 3.96 0 6 0 C6.18175781 0.63808594 6.36351562 1.27617188 6.55078125 1.93359375 C6.92783203 3.17302734 6.92783203 3.17302734 7.3125 4.4375 C7.67794922 5.67306641 7.67794922 5.67306641 8.05078125 6.93359375 C8.36402344 7.61550781 8.67726562 8.29742187 9 9 C9.99 9.33 10.98 9.66 12 10 C12 12.31 12 14.62 12 17 C10.02 17 8.04 17 6 17 C6 25.25 6 33.5 6 42 C4.02 42 2.04 42 0 42 C0 33.75 0 25.5 0 17 C-1.65 17 -3.3 17 -5 17 C-5.125 14.125 -5.125 14.125 -5 11 C-4.34 10.34 -3.68 9.68 -3 9 C-2.64984951 7.33678518 -2.31802943 5.66965451 -2 4 C-0.9375 1.6875 -0.9375 1.6875 0 0 Z " fill="#129090" transform="translate(170,52)"/>
<path d="M0 0 C1.98 0 3.96 0 6 0 C6 2.97 6 5.94 6 9 C7.98 9 9.96 9 12 9 C12 10.98 12 12.96 12 15 C10.02 15 8.04 15 6 15 C6 23.58 6 32.16 6 41 C4.02 41 2.04 41 0 41 C0 32.42 0 23.84 0 15 C-1.65 15 -3.3 15 -5 15 C-5 13.02 -5 11.04 -5 9 C-3.35 9 -1.7 9 0 9 C0 6.03 0 3.06 0 0 Z " fill="#099594" transform="translate(55,54)"/>
<path d="M0 0 C0.93199219 -0.01675781 1.86398438 -0.03351562 2.82421875 -0.05078125 C5.3125 0.3125 5.3125 0.3125 7.1328125 1.4765625 C8.78930078 4.05454095 8.60709404 5.9656689 8.5 9 C8.47292969 9.99386719 8.44585937 10.98773438 8.41796875 12.01171875 C8.38316406 12.77097656 8.34835938 13.53023437 8.3125 14.3125 C7.74660156 14.44269531 7.18070313 14.57289062 6.59765625 14.70703125 C3.45717489 15.5391246 0.46589 16.72595779 -2.56640625 17.88671875 C-3.26636719 18.02722656 -3.96632812 18.16773437 -4.6875 18.3125 C-5.6775 17.6525 -6.6675 16.9925 -7.6875 16.3125 C-9.71969488 19.71601338 -10.05641039 22.6357927 -10.3125 26.5625 C-10.38726562 27.64015625 -10.46203125 28.7178125 -10.5390625 29.828125 C-10.58804688 30.64796875 -10.63703125 31.4678125 -10.6875 32.3125 C-11.0175 32.3125 -11.3475 32.3125 -11.6875 32.3125 C-11.6875 22.4125 -11.6875 12.5125 -11.6875 2.3125 C-7.05158973 0.76719658 -4.60787912 0.01927983 0 0 Z M1.3125 5.3125 C1.6425 6.3025 1.9725 7.2925 2.3125 8.3125 C2.9725 7.9825 3.6325 7.6525 4.3125 7.3125 C3.9825 6.6525 3.6525 5.9925 3.3125 5.3125 C2.6525 5.3125 1.9925 5.3125 1.3125 5.3125 Z M6.3125 6.3125 C6.3125 8.6225 6.3125 10.9325 6.3125 13.3125 C6.6425 13.3125 6.9725 13.3125 7.3125 13.3125 C7.3125 11.0025 7.3125 8.6925 7.3125 6.3125 C6.9825 6.3125 6.6525 6.3125 6.3125 6.3125 Z M-1.6875 7.3125 C-0.6875 9.3125 -0.6875 9.3125 -0.6875 9.3125 Z M1.3125 9.3125 C2.3125 11.3125 2.3125 11.3125 2.3125 11.3125 Z M-1.6875 11.3125 C-1.6875 12.6325 -1.6875 13.9525 -1.6875 15.3125 C-0.3675 14.6525 0.9525 13.9925 2.3125 13.3125 C1.3225 13.3125 0.3325 13.3125 -0.6875 13.3125 C-1.0175 12.6525 -1.3475 11.9925 -1.6875 11.3125 Z M2.3125 11.3125 C3.3125 13.3125 3.3125 13.3125 3.3125 13.3125 Z " fill="#248481" transform="translate(234.6875,43.6875)"/>
<path d="M0 0 C1.485 0.99 1.485 0.99 3 2 C2.34 2 1.68 2 1 2 C1 17.51 1 33.02 1 49 C2.32 49 3.64 49 5 49 C4.9685791 48.16021606 4.9685791 48.16021606 4.93652344 47.3034668 C4.85333798 44.76499414 4.80133619 42.226808 4.75 39.6875 C4.69972656 38.36588867 4.69972656 38.36588867 4.6484375 37.01757812 C4.61188777 34.61443369 4.61173144 32.37268847 5 30 C7.015625 28.08203125 7.015625 28.08203125 9 27 C9 26.01 9 25.02 9 24 C9.99 24.66 10.98 25.32 12 26 C16.62491164 26.75760457 20.19832182 26.37897514 24.4375 24.375 C27.32450149 21.69924252 28.13682957 19.79794988 29 16 C31.56687367 19.8503105 30.83288724 21.58569763 30 26 C28.68 26.33 27.36 26.66 26 27 C25.67 28.65 25.34 30.3 25 32 C19.16200408 33.69832609 14.06892629 34.25287193 8 34 C7.93941406 35.05960938 7.87882812 36.11921875 7.81640625 37.2109375 C7.73199873 38.59897221 7.64735083 39.98699232 7.5625 41.375 C7.52318359 42.07367188 7.48386719 42.77234375 7.44335938 43.4921875 C7.11328125 48.7734375 7.11328125 48.7734375 6 51 C4.02 51 2.04 51 0 51 C0 34.17 0 17.34 0 0 Z " fill="#128F8D" transform="translate(70,62)"/>
<path d="M0 0 C10.00677813 -0.34975147 10.00677813 -0.34975147 15 2 C16.32 2 17.64 2 19 2 C19 11.57 19 21.14 19 31 C18.34 31 17.68 31 17 31 C17 30.34 17 29.68 17 29 C15.02 29 13.04 29 11 29 C10.3125 27.25 10.3125 27.25 10 25 C10.98560611 23.65599167 11.98758315 22.32392972 13 21 C14.15973979 17.18942639 14.21845367 15.53053034 12.6875 11.8125 C10.54200729 7.65447515 10.54200729 7.65447515 6.8359375 5.26953125 C6.02382812 5.11871094 5.21171875 4.96789062 4.375 4.8125 C3.14910156 4.57466797 3.14910156 4.57466797 1.8984375 4.33203125 C1.27195312 4.22246094 0.64546875 4.11289063 0 4 C0 2.68 0 1.36 0 0 Z " fill="#069796" transform="translate(119,62)"/>
<path d="M0 0 C0.33 0 0.66 0 1 0 C1 14.85 1 29.7 1 45 C-0.32 44.34 -1.64 43.68 -3 43 C-3 42.34 -3 41.68 -3 41 C-5.32854463 39.80161791 -5.32854463 39.80161791 -8 39 C-8.99 39.66 -9.98 40.32 -11 41 C-12.9375 41.265625 -12.9375 41.265625 -15 41.25 C-15.680625 41.25515625 -16.36125 41.2603125 -17.0625 41.265625 C-19 41 -19 41 -22 39 C-22 38.34 -22 37.68 -22 37 C-20.27172852 35.61132812 -20.27172852 35.61132812 -17.87890625 34.03125 C-17.02619141 33.46019531 -16.17347656 32.88914063 -15.29492188 32.30078125 C-14.39322266 31.70652344 -13.49152344 31.11226562 -12.5625 30.5 C-10.79026491 29.32699156 -9.02059374 28.15009726 -7.25390625 26.96875 C-6.46314697 26.44732422 -5.6723877 25.92589844 -4.85766602 25.38867188 C-2.87437822 24.12261085 -2.87437822 24.12261085 -2 22 C-3.65 19.69 -5.3 17.38 -7 15 C-4.525 15.495 -4.525 15.495 -2 16 C-1.34 10.72 -0.68 5.44 0 0 Z M-7.125 29 C-7.84945312 29.37125 -8.57390625 29.7425 -9.3203125 30.125 C-9.87460938 30.41375 -10.42890625 30.7025 -11 31 C-11 31.66 -11 32.32 -11 33 C-11.99 33 -12.98 33 -14 33 C-14.33 33.99 -14.66 34.98 -15 36 C-15.99 36.495 -15.99 36.495 -17 37 C-17 37.66 -17 38.32 -17 39 C-12.94462337 38.38932377 -12.94462337 38.38932377 -9 37.3125 C-6.01326058 36.84582197 -3.76923745 37.93006735 -1 39 C-1 35.04 -1 31.08 -1 27 C-3.52475462 27 -4.88902934 27.84595063 -7.125 29 Z " fill="#000604" transform="translate(216,48)"/>
<path d="M0 0 C1.4783226 2.95664519 1.06032783 5.74229737 1 9 C1.61488281 8.98839844 2.22976562 8.97679687 2.86328125 8.96484375 C3.67152344 8.95582031 4.47976562 8.94679688 5.3125 8.9375 C6.51326172 8.92009766 6.51326172 8.92009766 7.73828125 8.90234375 C10 9 10 9 13 10 C13.680625 9.855625 14.36125 9.71125 15.0625 9.5625 C19.36662163 8.7383065 23.63074426 8.92364407 28 9 C28 9.33 28 9.66 28 10 C27.18015625 10.13277344 26.3603125 10.26554687 25.515625 10.40234375 C24.43796875 10.57894531 23.3603125 10.75554688 22.25 10.9375 C21.18265625 11.11152344 20.1153125 11.28554688 19.015625 11.46484375 C16.10811164 11.91439792 16.10811164 11.91439792 13.796875 12.69140625 C12 13 12 13 9 11 C8.67 27.17 8.34 43.34 8 60 C7.67 60 7.34 60 7 60 C6.97494385 58.82904785 6.9498877 57.6580957 6.92407227 56.45166016 C6.83006297 52.11674622 6.72982659 47.78199496 6.62768555 43.44726562 C6.58431211 41.56937458 6.54263882 39.69144348 6.50268555 37.81347656 C6.44504124 35.1177156 6.38133019 32.42215673 6.31640625 29.7265625 C6.29969376 28.88380768 6.28298126 28.04105286 6.26576233 27.17276001 C6.26763856 22.9513339 6.26763856 22.9513339 5 19 C4.01 19 3.02 19 2 19 C1.07218035 21.78345895 0.90195852 23.30466538 0.97265625 26.16015625 C0.98490234 26.95357422 0.99714844 27.74699219 1.00976562 28.56445312 C1.04500613 30.23380902 1.08408709 31.90308813 1.12695312 33.57226562 C1.13791016 34.36439453 1.14886719 35.15652344 1.16015625 35.97265625 C1.17699463 36.69718994 1.19383301 37.42172363 1.21118164 38.16821289 C1 40 1 40 -1 42 C-1 33.75 -1 25.5 -1 17 C0.98 17 2.96 17 5 17 C5 15.02 5 13.04 5 11 C3.02 11 1.04 11 -1 11 C-1 8.03 -1 5.06 -1 2 C-2.98 2 -4.96 2 -7 2 C-7 4.97 -7 7.94 -7 11 C-8.32 10.67 -9.64 10.34 -11 10 C-10.34 9.67 -9.68 9.34 -9 9 C-9 6.36 -9 3.72 -9 1 C-5.68042385 -1.0901035 -3.73206842 -1.21040057 0 0 Z " fill="#000304" transform="translate(62,52)"/>
<path d="M0 0 C0.99 0.33 1.98 0.66 3 1 C2.01 1.33 1.02 1.66 0 2 C-0.2165625 3.546875 -0.2165625 3.546875 -0.4375 5.125 C-1 9 -1 9 -1.75 12.0625 C-2.08422613 15.98965707 -1.19135244 17.74831573 1 21 C4.17766402 23.5015653 6.96269506 25.37887616 11 26 C11 26.66 11 27.32 11 28 C0.44386361 28.85899844 0.44386361 28.85899844 -4.0625 25.9375 C-7.41825327 23.06458892 -8.41166842 20.41248688 -9 16 C-8.90588728 11.29436387 -8.64557802 7.96836703 -6 4 C-4.68 4 -3.36 4 -2 4 C-1.34 2.68 -0.68 1.36 0 0 Z " fill="#178C89" transform="translate(115,65)"/>
<path d="M0 0 C2.97 0 5.94 0 9 0 C10.50156874 3.00313748 10.09281204 5.79067522 10.0625 9.125 C10.05347656 10.40632813 10.04445313 11.68765625 10.03515625 13.0078125 C10.02355469 13.99523438 10.01195312 14.98265625 10 16 C11.03060547 15.96519531 11.03060547 15.96519531 12.08203125 15.9296875 C13.43361328 15.90261719 13.43361328 15.90261719 14.8125 15.875 C15.70582031 15.85179687 16.59914063 15.82859375 17.51953125 15.8046875 C20 16 20 16 23 18 C21.62714844 18.19916016 21.62714844 18.19916016 20.2265625 18.40234375 C19.03804687 18.57894531 17.84953125 18.75554688 16.625 18.9375 C15.44164062 19.11152344 14.25828125 19.28554688 13.0390625 19.46484375 C10.09297619 19.83462786 10.09297619 19.83462786 8 21 C8 14.73 8 8.46 8 2 C6.02 2 4.04 2 2 2 C2 18.17 2 34.34 2 51 C1.34 51 0.68 51 0 51 C0 34.17 0 17.34 0 0 Z " fill="#000101" transform="translate(0,44)"/>
<path d="M0 0 C1.98 0.66 3.96 1.32 6 2 C6 3.65 6 5.3 6 7 C7.65 7 9.3 7 11 7 C11 14.59 11 22.18 11 30 C10.34 30 9.68 30 9 30 C8.505 20.1 8.505 20.1 8 10 C5.36 10 2.72 10 0 10 C0.42152344 10.48210937 0.84304687 10.96421875 1.27734375 11.4609375 C1.82519531 12.09257813 2.37304688 12.72421875 2.9375 13.375 C3.48277344 14.00148438 4.02804688 14.62796875 4.58984375 15.2734375 C6.86220922 18.05566891 7.18042355 19.90649503 7.25 23.4375 C7.27578125 24.21996094 7.3015625 25.00242187 7.328125 25.80859375 C6.92823089 28.47931509 6.05300878 29.31977439 4 31 C3.67 30.34 3.34 29.68 3 29 C3.33 28.34 3.66 27.68 4 27 C4.57503009 21.54815847 4.57503009 21.54815847 2.5 16.75 C-0.30281464 14.78802975 -3.1575166 13.38274329 -6.29296875 12.02734375 C-8 11 -8 11 -9 8 C-8.67 7.34 -8.34 6.68 -8 6 C-4.66666667 6 -1.33333333 6 2 6 C2 5.01 2 4.02 2 3 C1.34 2.67 0.68 2.34 0 2 C0 1.34 0 0.68 0 0 Z M-5 8 C-5 8.66 -5 9.32 -5 10 C-4.01 9.67 -3.02 9.34 -2 9 C-2.99 8.67 -3.98 8.34 -5 8 Z " fill="#000203" transform="translate(159,62)"/>
<path d="M0 0 C0 0.33 0 0.66 0 1 C-4.455 1.495 -4.455 1.495 -9 2 C-9 2.66 -9 3.32 -9 4 C-8.39671875 4.14695312 -7.7934375 4.29390625 -7.171875 4.4453125 C-2.90643915 5.64238643 -0.50539973 6.43142531 2.5 9.8125 C4.04756728 13.10108047 4.92427735 15.36531276 5 19 C3.48517897 23.06609855 1.9706563 26.06832937 -2 28 C-6.64530178 28.51614464 -8.84351295 28.67880761 -12.875 26.3125 C-15.15616648 23.83005412 -16.22047316 22.27401274 -17 19 C-16.60986506 14.51344822 -15.28967365 10.29891216 -14 6 C-14.66 6.66 -15.32 7.32 -16 8 C-17.32 8 -18.64 8 -20 8 C-18.82687716 4.71525604 -17.00660655 2.63422819 -14.0625 0.75 C-9.60193394 -0.87202402 -4.67077409 -0.27208393 0 0 Z M-14 11 C-15.21586509 15.38218043 -15.52687959 18.79570379 -13.6875 23 C-11.17110786 25.98239068 -10.19424247 25.98089418 -6.1875 26.375 C-2.75880687 26.31879192 -1.99670655 25.99773575 1 23.9375 C3.54356454 20.20163958 3.77894903 18.44000949 3 14 C1.17331062 10.42462844 1.17331062 10.42462844 -2 8 C-6.47334326 6.91931113 -11.10551278 7.17927687 -14 11 Z " fill="#052F2F" transform="translate(129,61)"/>
<path d="M0 0 C0 0.33 0 0.66 0 1 C-1.09699219 1.02578125 -2.19398438 1.0515625 -3.32421875 1.078125 C-4.77868448 1.1344269 -6.23311003 1.19177377 -7.6875 1.25 C-8.40873047 1.26417969 -9.12996094 1.27835938 -9.87304688 1.29296875 C-14.77564671 1.51683176 -17.46279602 2.31788264 -21 6 C-24.50802421 11.42465995 -24.24194852 16.88225358 -23 23 C-22.67751743 24.33599921 -22.34740836 25.67026457 -22 27 C-25 26 -25 26 -26.1796875 23.80078125 C-27.06563092 20.7759173 -27.2007492 18.33109166 -27.125 15.1875 C-27.10695312 14.21167969 -27.08890625 13.23585938 -27.0703125 12.23046875 C-27.04710937 11.49441406 -27.02390625 10.75835937 -27 10 C-28.32 9.67 -29.64 9.34 -31 9 C-30.98839844 10.16917969 -30.97679687 11.33835937 -30.96484375 12.54296875 C-30.95546087 14.09114423 -30.9463612 15.63932145 -30.9375 17.1875 C-30.92912109 17.95642578 -30.92074219 18.72535156 -30.91210938 19.51757812 C-30.89508066 23.48526789 -31.01395885 27.12571234 -32 31 C-32.33 31 -32.66 31 -33 31 C-33 23.08 -33 15.16 -33 7 C-31.02 7 -29.04 7 -27 7 C-27 5.02 -27 3.04 -27 1 C-26.01 1.99 -25.02 2.98 -24 4 C-22.9171875 3.319375 -22.9171875 3.319375 -21.8125 2.625 C-14.47130385 -1.61658 -8.18690976 -1.63738195 0 0 Z " fill="#020B0A" transform="translate(209,62)"/>
<path d="M0 0 C0.495 0.33 0.99 0.66 1.5 1 C5.78824706 2.71529882 10.21175294 2.71529882 14.5 1 C14.995 0.67 15.49 0.34 16 0 C17.32 0.99 18.64 1.98 20 3 C19.8125 4.875 19.8125 4.875 19 7 C13.54794591 9.76991657 7.97204846 9.64690617 2 9 C-0.98790124 8.01586954 -2.48484925 7.0121206 -5 5 C-5.9375 2.75 -5.9375 2.75 -6 1 C-3.03 1.495 -3.03 1.495 0 2 C0 1.34 0 0.68 0 0 Z " fill="#099492" transform="translate(193,86)"/>
<path d="M0 0 C0.93199219 -0.01675781 1.86398438 -0.03351562 2.82421875 -0.05078125 C5.3125 0.3125 5.3125 0.3125 7.1328125 1.4765625 C8.78930078 4.05454095 8.60709404 5.9656689 8.5 9 C8.47292969 9.99386719 8.44585937 10.98773438 8.41796875 12.01171875 C8.38316406 12.77097656 8.34835938 13.53023437 8.3125 14.3125 C7.3225 14.8075 7.3225 14.8075 6.3125 15.3125 C6.38210937 14.40757813 6.38210937 14.40757813 6.453125 13.484375 C6.70116591 8.34396071 6.70116591 8.34396071 4.75 3.6875 C2.26178598 2.02077805 2.26178598 2.02077805 -1.25 2.3125 C-4.65024624 3.04955196 -4.65024624 3.04955196 -6.6875 5 C-8.04919572 8.14892135 -7.60853831 10.05344135 -6.6875 13.3125 C-4.73533565 15.26466435 -3.15550047 16.16076645 -0.6875 17.3125 C-2.5 17.9375 -2.5 17.9375 -4.6875 18.3125 C-5.6775 17.6525 -6.6675 16.9925 -7.6875 16.3125 C-9.71969488 19.71601338 -10.05641039 22.6357927 -10.3125 26.5625 C-10.38726562 27.64015625 -10.46203125 28.7178125 -10.5390625 29.828125 C-10.58804688 30.64796875 -10.63703125 31.4678125 -10.6875 32.3125 C-11.0175 32.3125 -11.3475 32.3125 -11.6875 32.3125 C-11.6875 22.4125 -11.6875 12.5125 -11.6875 2.3125 C-7.05158973 0.76719658 -4.60787912 0.01927983 0 0 Z " fill="#000000" transform="translate(234.6875,43.6875)"/>
<path d="M0 0 C1.485 0.99 1.485 0.99 3 2 C2.34 2 1.68 2 1 2 C1 17.51 1 33.02 1 49 C2.32 49 3.64 49 5 49 C5 42.73 5 36.46 5 30 C8.96 30.99 12.92 31.98 17 33 C17 33.33 17 33.66 17 34 C14.03 34 11.06 34 8 34 C7.93941406 35.05960938 7.87882812 36.11921875 7.81640625 37.2109375 C7.73199873 38.59897221 7.64735083 39.98699232 7.5625 41.375 C7.52318359 42.07367188 7.48386719 42.77234375 7.44335938 43.4921875 C7.11328125 48.7734375 7.11328125 48.7734375 6 51 C4.02 51 2.04 51 0 51 C0 34.17 0 17.34 0 0 Z " fill="#188281" transform="translate(70,62)"/>
<path d="M0 0 C0.66 0 1.32 0 2 0 C1.67 1.98 1.34 3.96 1 6 C2.32 6 3.64 6 5 6 C4.1875 8.4375 4.1875 8.4375 3 11 C-1.33400534 12.44466845 -5.47615448 12.67713611 -10 12 C-12.2902332 10.55087014 -13.34557976 9.20589365 -15 7 C-13.35 5.68 -11.7 4.36 -10 3 C-10 3.66 -10 4.32 -10 5 C-7.36 5 -4.72 5 -2 5 C-0.58614089 2.61837991 -0.58614089 2.61837991 0 0 Z " fill="#118F8D" transform="translate(158,83)"/>
<path d="M0 0 C1.32 0 2.64 0 4 0 C4 1.98 4 3.96 4 6 C5.65 6 7.3 6 9 6 C9 14.25 9 22.5 9 31 C7 29 7 29 6.77294922 26.84521484 C6.78342285 25.97590332 6.79389648 25.1065918 6.8046875 24.2109375 C6.81113281 23.26992187 6.81757812 22.32890625 6.82421875 21.359375 C6.84097656 20.37453125 6.85773437 19.3896875 6.875 18.375 C6.88402344 17.38242188 6.89304687 16.38984375 6.90234375 15.3671875 C6.92595884 12.91121866 6.95889201 10.45572832 7 8 C5.35 8 3.7 8 2 8 C2 15.26 2 22.52 2 30 C1.34 30.33 0.68 30.66 0 31 C0 20.77 0 10.54 0 0 Z " fill="#000203" transform="translate(46,63)"/>
<path d="M0 0 C1.32 0.33 2.64 0.66 4 1 C3.01 1 2.02 1 1 1 C1 2.32 1 3.64 1 5 C2.65 5 4.3 5 6 5 C9.36863308 11.73726616 6.63441302 22.77222309 6 30 C7.32 30 8.64 30 10 30 C10 21.75 10 13.5 10 5 C11.65 4.67 13.3 4.34 15 4 C15 3.34 15 2.68 15 2 C14.01 2 13.02 2 12 2 C12 1.34 12 0.68 12 0 C13.65 0 15.3 0 17 0 C17 1.98 17 3.96 17 6 C15.02 6 13.04 6 11 6 C11 14.58 11 23.16 11 32 C9.02 32 7.04 32 5 32 C5 23.42 5 14.84 5 6 C3.35 6 1.7 6 0 6 C0 4.02 0 2.04 0 0 Z " fill="#1F7C7A" transform="translate(50,63)"/>
<path d="M0 0 C0.33 0 0.66 0 1 0 C1 9.24 1 18.48 1 28 C0.34 27.67 -0.32 27.34 -1 27 C-1.625 23.9375 -1.625 23.9375 -2 21 C-2.680625 21.99 -2.680625 21.99 -3.375 23 C-3.91125 23.66 -4.4475 24.32 -5 25 C-5.66 25 -6.32 25 -7 25 C-6.67 24.236875 -6.34 23.47375 -6 22.6875 C-4.17068293 15.94189332 -4.07850971 9.41104814 -7 3 C-4.525 4.98 -4.525 4.98 -2 7 C-1.34 4.69 -0.68 2.38 0 0 Z " fill="#000304" transform="translate(39,65)"/>
<path d="M0 0 C0.99 0.33 1.98 0.66 3 1 C2.67 1.33 2.34 1.66 2 2 C1.84235595 3.77869726 1.74899323 5.56318476 1.68359375 7.34765625 C1.64169922 8.42724609 1.59980469 9.50683594 1.55664062 10.61914062 C1.51732422 11.75544922 1.47800781 12.89175781 1.4375 14.0625 C1.37272461 15.77276367 1.37272461 15.77276367 1.30664062 17.51757812 C1.20017161 20.34492195 1.09815793 23.17235738 1 26 C-0.32 26 -1.64 26 -3 26 C-3.086985 22.22931168 -3.14038579 18.45888068 -3.1875 14.6875 C-3.21263672 13.61564453 -3.23777344 12.54378906 -3.26367188 11.43945312 C-3.27333984 10.41142578 -3.28300781 9.38339844 -3.29296875 8.32421875 C-3.3086792 7.37635498 -3.32438965 6.42849121 -3.34057617 5.4519043 C-2.94475643 2.60228592 -2.22175281 1.75023895 0 0 Z " fill="#019998" transform="translate(174,67)"/>
<path d="M0 0 C1.23556641 0.01740234 1.23556641 0.01740234 2.49609375 0.03515625 C3.32238281 0.04417969 4.14867188 0.05320312 5 0.0625 C5.63808594 0.07410156 6.27617188 0.08570312 6.93359375 0.09765625 C7.26359375 0.75765625 7.59359375 1.41765625 7.93359375 2.09765625 C6.71671875 1.99453125 5.49984375 1.89140625 4.24609375 1.78515625 C0.74922584 1.79757852 -0.01702608 2.06370738 -3.06640625 4.16015625 C-5.56401288 7.82851599 -5.70030095 9.73963017 -5.06640625 14.09765625 C-3.61547556 16.99951763 -2.73326448 17.85197164 0.30859375 18.97265625 C4.32087895 19.16371745 6.76871204 18.14203295 9.74609375 15.47265625 C11.51351285 11.93781806 11.12988442 9.02346956 10.93359375 5.09765625 C11.59359375 5.42765625 12.25359375 5.75765625 12.93359375 6.09765625 C13.72094234 14.12861184 13.72094234 14.12861184 10.49609375 18.09765625 C9.65046875 18.75765625 8.80484375 19.41765625 7.93359375 20.09765625 C7.60359375 20.42765625 7.27359375 20.75765625 6.93359375 21.09765625 C3.87977819 21.53932379 0.98253733 21.57988712 -2.06640625 21.09765625 C-5.06640625 18.66015625 -5.06640625 18.66015625 -7.06640625 16.09765625 C-7.39640625 15.76765625 -7.72640625 15.43765625 -8.06640625 15.09765625 C-8.50807379 12.04384069 -8.54863712 9.14659983 -8.06640625 6.09765625 C-5.62890625 3.09765625 -5.62890625 3.09765625 -3.06640625 1.09765625 C-2.06640625 0.09765625 -2.06640625 0.09765625 0 0 Z " fill="#000608" transform="translate(84.06640625,67.90234375)"/>
<path d="M0 0 C0.66 0.66 1.32 1.32 2 2 C1.42307692 8.57692308 1.42307692 8.57692308 0 10 C-5.52941176 10.23529412 -5.52941176 10.23529412 -8 9 C-8.91950534 6.16485855 -9.20936472 4.57977921 -8.1875 1.75 C-5.84247948 -1.70581971 -3.69852693 -1.01709491 0 0 Z " fill="#12918F" transform="translate(47,48)"/>
<path d="M0 0 C1.23556641 0.01740234 1.23556641 0.01740234 2.49609375 0.03515625 C3.32238281 0.04417969 4.14867187 0.05320312 5 0.0625 C5.63808594 0.07410156 6.27617187 0.08570312 6.93359375 0.09765625 C7.26359375 0.75765625 7.59359375 1.41765625 7.93359375 2.09765625 C6.90234375 1.99453125 5.87109375 1.89140625 4.80859375 1.78515625 C-0.34741989 2.2009638 -1.6535158 3.26855965 -5.06640625 7.09765625 C-5.86831815 10.94683338 -5.40261539 12.51575581 -3.44140625 15.91015625 C-0.51435993 18.60611996 0.96821478 19.09765625 4.93359375 19.09765625 C8.25164517 17.77336352 8.25164517 17.77336352 10.93359375 16.09765625 C9.93359375 19.09765625 9.93359375 19.09765625 6.93359375 21.09765625 C3.86883832 21.64288428 0.99834536 21.64608549 -2.06640625 21.09765625 C-5.06640625 18.66015625 -5.06640625 18.66015625 -7.06640625 16.09765625 C-7.39640625 15.76765625 -7.72640625 15.43765625 -8.06640625 15.09765625 C-8.50807379 12.04384069 -8.54863712 9.14659983 -8.06640625 6.09765625 C-5.62890625 3.09765625 -5.62890625 3.09765625 -3.06640625 1.09765625 C-2.06640625 0.09765625 -2.06640625 0.09765625 0 0 Z " fill="#000809" transform="translate(16.06640625,67.90234375)"/>
<path d="M0 0 C0.33 0.99 0.66 1.98 1 3 C-1.09839653 4.50869023 -3.20299781 6.00698357 -5.3125 7.5 C-5.90740234 7.92925781 -6.50230469 8.35851562 -7.11523438 8.80078125 C-11.66015625 12 -11.66015625 12 -15 12 C-14.54726428 7.133091 -13.35474936 4.5580675 -10 1 C-6.78548731 -0.60725635 -3.56387464 -0.05748185 0 0 Z M-8 3 C-9.70532323 4.94009522 -9.70532323 4.94009522 -11 7 C-8.53199953 5.84826645 -6.95216435 4.95216435 -5 3 C-5.99 3 -6.98 3 -8 3 Z " fill="#000608" transform="translate(205,68)"/>
<path d="M0 0 C0.99 0.495 0.99 0.495 2 1 C2.33 8.59 2.66 16.18 3 24 C4.65 23.67 6.3 23.34 8 23 C7.484375 23.78375 6.96875 24.5675 6.4375 25.375 C5.963125 26.24125 5.48875 27.1075 5 28 C5.33 28.66 5.66 29.32 6 30 C4.02 30.33 2.04 30.66 0 31 C0 20.77 0 10.54 0 0 Z " fill="#000301" transform="translate(139,63)"/>
<path d="M0 0 C0.99 0.33 1.98 0.66 3 1 C2.01 1.33 1.02 1.66 0 2 C-0.144375 3.093125 -0.28875 4.18625 -0.4375 5.3125 C-1 9 -1 9 -2 12 C-2.66 12 -3.32 12 -4 12 C-3.34 14.97 -2.68 17.94 -2 21 C-3.32 21 -4.64 21 -6 21 C-7.22329074 17.33012779 -6.88021006 14.66032178 -6.5625 10.8125 C-6.46066406 9.54019531 -6.35882813 8.26789063 -6.25390625 6.95703125 C-6.17011719 5.98121094 -6.08632812 5.00539063 -6 4 C-4.68 4 -3.36 4 -2 4 C-1.34 2.68 -0.68 1.36 0 0 Z " fill="#069796" transform="translate(115,65)"/>
<path d="M0 0 C1 2 1 2 0.75 5.3125 C0.66388473 9.0587748 0.66388473 9.0587748 3 11.625 C6.50427009 14.39921382 10.14288833 16.75081578 14 19 C12.125 22.875 12.125 22.875 11 24 C5.58823529 24.47058824 5.58823529 24.47058824 3.125 22.5 C2.75375 22.005 2.3825 21.51 2 21 C5.62326739 19.7922442 6.64146369 20.45688872 10 22 C9.26647481 18.7692802 9.26647481 18.7692802 6.25 17.1875 C2.43178269 14.61754604 0.46970804 12.89166115 -2 9 C-2.16768897 6.05191969 -1.69444641 3.92659557 -1 1 C-0.67 0.67 -0.34 0.34 0 0 Z " fill="#000101" transform="translate(145,65)"/>
<path d="M0 0 C13.06672454 -0.77241721 13.06672454 -0.77241721 19 4 C20.4375 6.75 20.4375 6.75 21 9 C19.68 8.67 18.36 8.34 17 8 C17 7.34 17 6.68 17 6 C15.68 5.67 14.36 5.34 13 5 C13.33 4.34 13.66 3.68 14 3 C10.99221479 1.99740493 8.46179353 1.69685358 5.3125 1.4375 C4.31863281 1.35371094 3.32476562 1.26992188 2.30078125 1.18359375 C1.16189453 1.09271484 1.16189453 1.09271484 0 1 C0 0.67 0 0.34 0 0 Z M4 5 C10.625 4.875 10.625 4.875 14 6 C14 6.66 14 7.32 14 8 C14.66 8 15.32 8 16 8 C16.33 9.65 16.66 11.3 17 13 C11.125 9.25 11.125 9.25 10 7 C6.97065509 6.34227572 6.97065509 6.34227572 4 6 C4 5.67 4 5.34 4 5 Z " fill="#127272" transform="translate(81,62)"/>
<path d="M0 0 C3.21029714 1.10699901 4.00968977 2.01603825 5.8125 5 C6.204375 5.99 6.59625 6.98 7 8 C6.67 8.66 6.34 9.32 6 10 C4.35 8.68 2.7 7.36 1 6 C1.33 6.66 1.66 7.32 2 8 C2.07065617 10.04055005 2.08421976 12.08334257 2.0625 14.125 C2.05347656 15.22070312 2.04445313 16.31640625 2.03515625 17.4453125 C2.02355469 18.28835937 2.01195312 19.13140625 2 20 C1.34 20.33 0.68 20.66 0 21 C0.03480469 20.31292969 0.06960937 19.62585938 0.10546875 18.91796875 C0.14607422 17.56638672 0.14607422 17.56638672 0.1875 16.1875 C0.22230469 15.29417969 0.25710937 14.40085937 0.29296875 13.48046875 C-0.05743874 10.5136853 -0.84053402 9.93911231 -3 8 C-3.6875 4.8125 -3.6875 4.8125 -4 2 C-2.68 2 -1.36 2 0 2 C0 1.34 0 0.68 0 0 Z " fill="#0A6B6B" transform="translate(27,63)"/>
<path d="M0 0 C1.98 0 3.96 0 6 0 C6.18175781 0.62648437 6.36351562 1.25296875 6.55078125 1.8984375 C6.92783203 3.12433594 6.92783203 3.12433594 7.3125 4.375 C7.67794922 5.59316406 7.67794922 5.59316406 8.05078125 6.8359375 C8.91368185 9.33184629 8.91368185 9.33184629 12 11 C10.02 11 8.04 11 6 11 C4.64560332 8.29120665 4.93498549 5.99066732 5 3 C3.68 3 2.36 3 1 3 C1 5.64 1 8.28 1 11 C-0.65 11 -2.3 11 -4 11 C-2.95902388 7.13351728 -1.96301592 3.50538557 0 0 Z " fill="#0C3D3C" transform="translate(170,52)"/>
<path d="M0 0 C1.32 0 2.64 0 4 0 C4 0.99 4 1.98 4 3 C2.68 3.33 1.36 3.66 0 4 C-0.33 5.65 -0.66 7.3 -1 9 C-2.875 9.625 -2.875 9.625 -5 10 C-7 8 -7 8 -7.1875 5.4375 C-7 3 -7 3 -6 2 C-4.00041636 1.95919217 -1.99954746 1.95745644 0 2 C0 1.34 0 0.68 0 0 Z " fill="#029999" transform="translate(194,79)"/>
<path d="M0 0 C0 2.54022779 -0.2206273 4.806876 -0.5625 7.3125 C-1.00570204 11.0797173 -0.85978164 14.27427957 0 18 C-1.98 17.67 -3.96 17.34 -6 17 C-6 12.05 -6 7.1 -6 2 C-4.02 2.99 -4.02 2.99 -2 4 C-1.34 2.68 -0.68 1.36 0 0 Z " fill="#000D0E" transform="translate(108,69)"/>
<path d="M0 0 C3.3 0 6.6 0 10 0 C10 10.89 10 21.78 10 33 C8.35 32.67 6.7 32.34 5 32 C4.67 31.34 4.34 30.68 4 30 C5.65 30.33 7.3 30.66 9 31 C9 21.43 9 11.86 9 2 C7.35 2.33 5.7 2.66 4 3 C2.68 2.01 1.36 1.02 0 0 Z " fill="#1C5B59" transform="translate(129,62)"/>
<path d="M0 0 C2.56687367 3.8503105 1.83288724 5.58569763 1 10 C-0.32 10.33 -1.64 10.66 -3 11 C-3.33 12.32 -3.66 13.64 -4 15 C-6.97 14.67 -9.94 14.34 -13 14 C-13 13.67 -13 13.34 -13 13 C-11.8553125 13.1546875 -11.8553125 13.1546875 -10.6875 13.3125 C-9.800625 13.209375 -8.91375 13.10625 -8 13 C-6.31865712 10.64225405 -6.31865712 10.64225405 -5 8 C-4.01 7.34 -3.02 6.68 -2 6 C-0.78715124 2.94570927 -0.78715124 2.94570927 0 0 Z " fill="#039898" transform="translate(99,78)"/>
<path d="M0 0 C2.97 0.495 2.97 0.495 6 1 C6 1.99 6 2.98 6 4 C6.99 4 7.98 4 9 4 C9.33 5.32 9.66 6.64 10 8 C5.545 8.495 5.545 8.495 1 9 C-1 6 -1 6 -0.625 2.8125 C-0.41875 1.884375 -0.2125 0.95625 0 0 Z " fill="#1B8C8D" transform="translate(227,49)"/>
<path d="M0 0 C1.76923828 0.01353516 1.76923828 0.01353516 3.57421875 0.02734375 C4.47785156 0.03894531 5.38148437 0.05054688 6.3125 0.0625 C6.6425 1.0525 6.9725 2.0425 7.3125 3.0625 C5.9925 3.0625 4.6725 3.0625 3.3125 3.0625 C3.6425 4.3825 3.9725 5.7025 4.3125 7.0625 C0.6825 7.0625 -2.9475 7.0625 -6.6875 7.0625 C-6.6875 6.4025 -6.6875 5.7425 -6.6875 5.0625 C-4.7075 5.0625 -2.7275 5.0625 -0.6875 5.0625 C-0.3575 3.7425 -0.0275 2.4225 0.3125 1.0625 C-3.3175 1.7225 -6.9475 2.3825 -10.6875 3.0625 C-8.63221196 -1.04807609 -4.03316787 -0.03993236 0 0 Z " fill="#138B88" transform="translate(19.6875,61.9375)"/>
<path d="M0 0 C1.65 0 3.3 0 5 0 C1.68551438 3.54307084 -0.21529091 4.90572176 -5.1796875 5.16796875 C-6.39914063 5.17441406 -7.61859375 5.18085937 -8.875 5.1875 C-10.08929688 5.20167969 -11.30359375 5.21585937 -12.5546875 5.23046875 C-15.84344421 5.01047255 -18.05365948 4.41715618 -21 3 C-21 2.67 -21 2.34 -21 2 C-14.4 2.33 -7.8 2.66 -1 3 C-0.67 2.01 -0.34 1.02 0 0 Z " fill="#146C6B" transform="translate(27,90)"/>
<path d="M0 0 C0.33 0.99 0.66 1.98 1 3 C3.00016466 4.20882096 3.00016466 4.20882096 5 5 C4.01 6.32 3.02 7.64 2 9 C1.01 8.67 0.02 8.34 -1 8 C-0.01 7.67 0.98 7.34 2 7 C1.505 6.54625 1.01 6.0925 0.5 5.625 C-1 4 -1 4 -1 2 C-6.35962892 2.29328332 -6.35962892 2.29328332 -10.4375 5.5625 C-10.953125 6.366875 -11.46875 7.17125 -12 8 C-12.25 5.6875 -12.25 5.6875 -12 3 C-8.70976944 -0.97569526 -4.75485572 -0.23774279 0 0 Z " fill="#1B8D8C" transform="translate(158,61)"/>
<path d="M0 0 C4.95 1.32 9.9 2.64 15 4 C15 4.66 15 5.32 15 6 C13.2507786 6.08142927 11.50045458 6.13938541 9.75 6.1875 C8.77546875 6.22230469 7.8009375 6.25710937 6.796875 6.29296875 C3.58567195 5.95659972 2.24610074 5.29423147 0 3 C0 2.01 0 1.02 0 0 Z " fill="#049798" transform="translate(111,87)"/>
<path d="M0 0 C2 1 2 1 3 3 C2.67 3.99 2.34 4.98 2 6 C0.67696283 6.3721042 -0.65737935 6.70630173 -2 7 C-2.33 7.66 -2.66 8.32 -3 9 C-4.98 9 -6.96 9 -9 9 C-9.33 8.34 -9.66 7.68 -10 7 C-9.0925 6.5875 -8.185 6.175 -7.25 5.75 C-4.20334382 4.10949282 -2.28873194 2.55281639 0 0 Z " fill="#049899" transform="translate(29,84)"/>
<path d="M0 0 C2.31 0.66 4.62 1.32 7 2 C7 3.32 7 4.64 7 6 C7.66 6 8.32 6 9 6 C8.67 6.99 8.34 7.98 8 9 C7.67 8.34 7.34 7.68 7 7 C6.01 7 5.02 7 4 7 C3.67 6.34 3.34 5.68 3 5 C2.01 4.67 1.02 4.34 0 4 C0 5.98 0 7.96 0 10 C-0.33 10 -0.66 10 -1 10 C-1.9765625 3.9453125 -1.9765625 3.9453125 -2 2 C-1.34 1.34 -0.68 0.68 0 0 Z " fill="#114141" transform="translate(230,46)"/>
<path d="M0 0 C1.65 0 3.3 0 5 0 C5 1.98 5 3.96 5 6 C3.02 6 1.04 6 -1 6 C-1 12.27 -1 18.54 -1 25 C-1.33 25 -1.66 25 -2 25 C-2 18.4 -2 11.8 -2 5 C-0.35 4.67 1.3 4.34 3 4 C3 3.34 3 2.68 3 2 C2.01 2 1.02 2 0 2 C0 1.34 0 0.68 0 0 Z " fill="#218A89" transform="translate(62,63)"/>
<path d="M0 0 C0.81726563 0.80824219 1.63453125 1.61648437 2.4765625 2.44921875 C6.26204856 5.60379047 9.58340325 5.77350871 14.375 5.8125 C15.11105469 5.83763672 15.84710938 5.86277344 16.60546875 5.88867188 C18.40308149 5.94703593 20.2015935 5.97650538 22 6 C19.35483913 8.64516087 17.99943485 8.32873984 14.3125 8.375 C8.64454989 8.27962584 5.43029029 7.54423223 1 4 C0.0625 1.75 0.0625 1.75 0 0 Z " fill="#1B7F7D" transform="translate(187,87)"/>
<path d="M0 0 C0.5775 0.20625 1.155 0.4125 1.75 0.625 C1.75 1.285 1.75 1.945 1.75 2.625 C-1.25313748 4.12656874 -4.04067522 3.71781204 -7.375 3.6875 C-8.65632812 3.67847656 -9.93765625 3.66945313 -11.2578125 3.66015625 C-12.73894531 3.64275391 -12.73894531 3.64275391 -14.25 3.625 C-14.58 2.635 -14.91 1.645 -15.25 0.625 C-14.34507812 0.76808594 -14.34507812 0.76808594 -13.421875 0.9140625 C-12.62265625 1.02492188 -11.8234375 1.13578125 -11 1.25 C-10.21109375 1.36601563 -9.4221875 1.48203125 -8.609375 1.6015625 C-5.20032537 1.63542723 -3.32597634 -0.55432939 0 0 Z " fill="#02989A" transform="translate(209.25,89.375)"/>
<path d="M0 0 C2.31 0 4.62 0 7 0 C7 0.66 7 1.32 7 2 C7.99 2.33 8.98 2.66 10 3 C10 3.66 10 4.32 10 5 C6.04 5 2.08 5 -2 5 C-1.34 3.35 -0.68 1.7 0 0 Z " fill="#029997" transform="translate(150,63)"/>
<path d="M0 0 C3.65316671 1.24976756 4.78065836 1.67098753 7 5 C7.07905064 7.33199388 7.08798769 9.66832622 7 12 C5.68 12 4.36 12 3 12 C3.33 10.02 3.66 8.04 4 6 C3.34 5.67 2.68 5.34 2 5 C0 1.44444444 0 1.44444444 0 0 Z " fill="#039798" transform="translate(156,77)"/>
<path d="M0 0 C0.66 0.33 1.32 0.66 2 1 C1 4 1 4 -1 5 C-0.01 5.66 0.98 6.32 2 7 C0.87926138 7.83905565 -0.24674547 8.67107831 -1.375 9.5 C-2.00148437 9.9640625 -2.62796875 10.428125 -3.2734375 10.90625 C-5 12 -5 12 -7 12 C-7 11.34 -7 10.68 -7 10 C-5.68 9.67 -4.36 9.34 -3 9 C-3 8.01 -3 7.02 -3 6 C-4.32 5.67 -5.64 5.34 -7 5 C-4.69 3.35 -2.38 1.7 0 0 Z " fill="#178E8E" transform="translate(201,73)"/>
<path d="M0 0 C2.475 0.99 2.475 0.99 5 2 C6.9924325 2.37593066 8.9918674 2.71979545 11 3 C11 3.33 11 3.66 11 4 C8.03 4 5.06 4 2 4 C1.67 8.95 1.34 13.9 1 19 C0.67 19 0.34 19 0 19 C0 12.73 0 6.46 0 0 Z " fill="#000103" transform="translate(76,92)"/>
<path d="M0 0 C0.99 0.66 1.98 1.32 3 2 C1.125 5.875 1.125 5.875 0 7 C-5.41176471 7.47058824 -5.41176471 7.47058824 -7.875 5.5 C-8.24625 5.005 -8.6175 4.51 -9 4 C-5.37673261 2.7922442 -4.35853631 3.45688872 -1 5 C-0.67 3.35 -0.34 1.7 0 0 Z " fill="#00090E" transform="translate(156,82)"/>
<path d="M0 0 C1.32 0.66 2.64 1.32 4 2 C3.125 8.875 3.125 8.875 2 10 C-3.52941176 10.23529412 -3.52941176 10.23529412 -6 9 C-5.67 8.01 -5.34 7.02 -5 6 C-4.67 6.33 -4.34 6.66 -4 7 C-2.33382885 7.04063832 -0.66611905 7.042721 1 7 C1.15149298 3.37114676 1.15149298 3.37114676 0 0 Z " fill="#000000" transform="translate(45,48)"/>
<path d="M0 0 C2.36453193 2.36453193 2.36652704 3.25869929 2.6875 6.5 C2.77386719 7.2940625 2.86023438 8.088125 2.94921875 8.90625 C3 11 3 11 2 13 C-1.0625 13.625 -1.0625 13.625 -4 14 C-3.71125 13.49210937 -3.4225 12.98421875 -3.125 12.4609375 C-0.78485506 8.12191875 0.50606482 5.06064817 0 0 Z " fill="#138F8D" transform="translate(133,74)"/>
<path d="M0 0 C0.66 0 1.32 0 2 0 C2.55353075 11.52164009 2.55353075 11.52164009 -1 17 C-2.1533417 13.53997489 -1.76195086 12.50497395 -1 9 C-0.62242382 6.00456228 -0.30753432 3.00336709 0 0 Z " fill="#1A8D8C" transform="translate(33,73)"/>
<path d="M0 0 C1.98 0 3.96 0 6 0 C6 0.66 6 1.32 6 2 C6.66 2 7.32 2 8 2 C8 2.66 8 3.32 8 4 C5.03 4 2.06 4 -1 4 C-0.67 2.68 -0.34 1.36 0 0 Z " fill="#019999" transform="translate(198,63)"/>
<path d="M0 0 C2.31 0 4.62 0 7 0 C7 0.66 7 1.32 7 2 C7.99 1.67 8.98 1.34 10 1 C10 1.66 10 2.32 10 3 C2.375 4.25 2.375 4.25 -1 2 C-0.67 1.34 -0.34 0.68 0 0 Z " fill="#019A9C" transform="translate(120,63)"/>
<path d="M0 0 C1.32 0 2.64 0 4 0 C4.33 2.64 4.66 5.28 5 8 C3.35 7.67 1.7 7.34 0 7 C0 4.69 0 2.38 0 0 Z " fill="#029996" transform="translate(171,55)"/>
<path d="M0 0 C1.65 0.99 3.3 1.98 5 3 C4.67 4.32 4.34 5.64 4 7 C3.01 6.67 2.02 6.34 1 6 C1.66 6 2.32 6 3 6 C2.67 5.34 2.34 4.68 2 4 C-1.96 4 -5.92 4 -10 4 C-10 3.67 -10 3.34 -10 3 C-9.04287109 2.80083984 -9.04287109 2.80083984 -8.06640625 2.59765625 C-7.24011719 2.42105469 -6.41382813 2.24445313 -5.5625 2.0625 C-4.73878906 1.88847656 -3.91507813 1.71445313 -3.06640625 1.53515625 C-1.02338796 1.19247006 -1.02338796 1.19247006 0 0 Z " fill="#1F807E" transform="translate(208,86)"/>
<path d="M0 0 C0.66 0.99 1.32 1.98 2 3 C-3.445 6.96 -3.445 6.96 -9 11 C-9.33 10.01 -9.66 9.02 -10 8 C-9.01 8 -8.02 8 -7 8 C-6.7525 7.360625 -6.505 6.72125 -6.25 6.0625 C-5 4 -5 4 -2.9375 3.4375 C-2.298125 3.293125 -1.65875 3.14875 -1 3 C-0.67 2.01 -0.34 1.02 0 0 Z " fill="#188E8C" transform="translate(213,68)"/>
<path d="M0 0 C1.98 0.66 3.96 1.32 6 2 C5.67 3.32 5.34 4.64 5 6 C5 5.01 5 4.02 5 3 C4.443125 3.639375 3.88625 4.27875 3.3125 4.9375 C0.77933439 7.19680987 -0.68341424 7.63149047 -4 8 C-3.34 7.236875 -2.68 6.47375 -2 5.6875 C0.29850538 3.15722061 0.29850538 3.15722061 0 0 Z " fill="#0A9692" transform="translate(207,65)"/>
<path d="M0 0 C0.99 0 1.98 0 3 0 C3.103125 0.639375 3.20625 1.27875 3.3125 1.9375 C3.539375 2.618125 3.76625 3.29875 4 4 C4.99 4.33 5.98 4.66 7 5 C6.05125 5.45375 5.1025 5.9075 4.125 6.375 C0.99686321 7.80238254 0.99686321 7.80238254 -1 10 C-0.45276317 6.62537285 0.0549 4.91765 2 2 C1.01 1.67 0.02 1.34 -1 1 C-0.67 0.67 -0.34 0.34 0 0 Z " fill="#13908D" transform="translate(78,63)"/>
<path d="M0 0 C2.83374881 3.20336822 3.5205537 5.78087253 4 10 C1.03 9.505 1.03 9.505 -2 9 C-1.34 6.03 -0.68 3.06 0 0 Z " fill="#000304" transform="translate(104,77)"/>
<path d="M0 0 C0.66 0.33 1.32 0.66 2 1 C1.45912682 4.78611227 -0.11722332 6.55400767 -3 9 C-3.66 9 -4.32 9 -5 9 C-4.67 7.35 -4.34 5.7 -4 4 C-3.01 4 -2.02 4 -1 4 C-0.67 2.68 -0.34 1.36 0 0 Z " fill="#107F7B" transform="translate(100,84)"/>
<path d="M0 0 C0 0.33 0 0.66 0 1 C-1.2375 1.226875 -2.475 1.45375 -3.75 1.6875 C-7.92034525 2.7005094 -9.67553136 4.31959133 -12 8 C-12.25 5.6875 -12.25 5.6875 -12 3 C-8.70976944 -0.97569526 -4.75485572 -0.23774279 0 0 Z " fill="#0C4948" transform="translate(158,61)"/>
<path d="M0 0 C4 2 4 2 5 3 C5.04063832 4.66617115 5.042721 6.33388095 5 8 C4.01 8.495 4.01 8.495 3 9 C2.01 6.03 1.02 3.06 0 0 Z " fill="#029995" transform="translate(28,69)"/>
<path d="M0 0 C1.65 0 3.3 0 5 0 C4.0409375 0.9590625 4.0409375 0.9590625 3.0625 1.9375 C0.38087365 5.91930882 0.20501996 9.294792 0 14 C-0.33 14 -0.66 14 -1 14 C-1.027193 12.41676312 -1.04648306 10.83338938 -1.0625 9.25 C-1.07410156 8.36828125 -1.08570313 7.4865625 -1.09765625 6.578125 C-1.00826198 4.2181162 -0.66912821 2.25501476 0 0 Z " fill="#158F89" transform="translate(8,69)"/>
<path d="M0 0 C0 0.66 0 1.32 0 2 C-0.99 2 -1.98 2 -3 2 C-3 3.65 -3 5.3 -3 7 C-4.32 7 -5.64 7 -7 7 C-6.39816251 4.97954558 -5.72693904 2.97888961 -5 1 C-3 0 -3 0 0 0 Z " fill="#126966" transform="translate(45,47)"/>
<path d="M0 0 C0.33 1.32 0.66 2.64 1 4 C1.66 4 2.32 4 3 4 C2.67 5.32 2.34 6.64 2 8 C1.01 7.67 0.02 7.34 -1 7 C-1.04254356 5.00045254 -1.04080783 2.99958364 -1 1 C-0.67 0.67 -0.34 0.34 0 0 Z " fill="#029999" transform="translate(148,69)"/>
<path d="M0 0 C0.66 0.33 1.32 0.66 2 1 C1.34 2.65 0.68 4.3 0 6 C-1.32 6 -2.64 6 -4 6 C-2.84826645 3.53199953 -1.95216435 1.95216435 0 0 Z " fill="#0C6464" transform="translate(113,63)"/>
<path d="M0 0 C0.66 0.33 1.32 0.66 2 1 C2 3.64 2 6.28 2 9 C0.4375 7.875 0.4375 7.875 -1 6 C-0.6875 2.8125 -0.6875 2.8125 0 0 Z " fill="#24878A" transform="translate(227,49)"/>
<path d="M0 0 C1.58246707 -0.08153933 3.16616273 -0.13943557 4.75 -0.1875 C6.07257813 -0.23970703 6.07257813 -0.23970703 7.421875 -0.29296875 C10.44671583 0.05076316 11.75583602 1.00227459 14 3 C12.02 3 10.04 3 8 3 C8 2.34 8 1.68 8 1 C5.36 1 2.72 1 0 1 C0 0.67 0 0.34 0 0 Z " fill="#178E8D" transform="translate(119,62)"/>
<path d="M0 0 C0.99 0.33 1.98 0.66 3 1 C2.67 1.99 2.34 2.98 2 4 C1.34 4 0.68 4 0 4 C0 5.98 0 7.96 0 10 C-0.33 10 -0.66 10 -1 10 C-1.9765625 3.9453125 -1.9765625 3.9453125 -2 2 C-1.34 1.34 -0.68 0.68 0 0 Z " fill="#106262" transform="translate(230,46)"/>
<path d="M0 0 C1.0326802 2.78823655 1.04509293 3.8677274 0.0625 6.75 C-0.288125 7.4925 -0.63875 8.235 -1 9 C-1.66 9 -2.32 9 -3 9 C-2.5020163 5.26512223 -2.12508244 3.18762365 0 0 Z " fill="#178E8B" transform="translate(188,67)"/>
<path d="M0 0 C0.33 0.66 0.66 1.32 1 2 C0.34 2 -0.32 2 -1 2 C-1.33 3.65 -1.66 5.3 -2 7 C-2.66 6.34 -3.32 5.68 -4 5 C-4 3.68 -4 2.36 -4 1 C-2.68 0.67 -1.36 0.34 0 0 Z " fill="#04989C" transform="translate(193,66)"/>
<path d="M0 0 C2 2 2 2 3 5 C3.99 5.66 4.98 6.32 6 7 C4.02 7 2.04 7 0 7 C0 4.69 0 2.38 0 0 Z " fill="#000000" transform="translate(176,56)"/>
<path d="M0 0 C0.66 0 1.32 0 2 0 C2 2.31 2 4.62 2 7 C1.01 7.33 0.02 7.66 -1 8 C-0.67 5.36 -0.34 2.72 0 0 Z " fill="#099497" transform="translate(230,50)"/>
<path d="M0 0 C0.66 0.33 1.32 0.66 2 1 C1.01 1 0.02 1 -1 1 C-0.67 0.67 -0.34 0.34 0 0 Z " fill="#000000" transform="translate(239,59)"/>
</svg>
